<mxfile host="app.diagrams.net" modified="2024-01-21T13:58:22.971Z" agent="Mozilla/5.0 (X11; Ubuntu; Linux x86_64; rv:109.0) Gecko/20100101 Firefox/118.0" version="22.1.21" etag="vLkELFQ6sc-wjRJYU6dh" type="github">
  <diagram name="Page-1" id="AjSTAS1I5EC3uXCj3nYZ">
    <mxGraphModel>
      <root>
        <mxCell id="0" />
        <mxCell id="1" parent="0" />
      </root>
    </mxGraphModel>
  </diagram>
</mxfile>
